<!-- Generated by generate.sh from palette.json — do not edit -->
<svg xmlns="http://www.w3.org/2000/svg" width="680" height="528" viewBox="0 0 680 528" font-family="ui-monospace, monospace">
  <rect x="0" y="0" width="170" height="88" fill="#FFFFFF"/>
  <text x="14" y="36" fill="#111111" font-size="17">paper</text>
  <text x="14" y="62" fill="#111111" font-size="14" opacity="0.75">#FFFFFF</text>
  <rect x="170" y="0" width="170" height="88" fill="#FFDBF0"/>
  <text x="184" y="36" fill="#111111" font-size="17">dot</text>
  <text x="184" y="62" fill="#111111" font-size="14" opacity="0.75">#FFDBF0</text>
  <rect x="340" y="0" width="170" height="88" fill="#FFBDE1"/>
  <text x="354" y="36" fill="#111111" font-size="17">blush</text>
  <text x="354" y="62" fill="#111111" font-size="14" opacity="0.75">#FFBDE1</text>
  <rect x="510" y="0" width="170" height="88" fill="#DD77BB"/>
  <text x="524" y="36" fill="#111111" font-size="17">pink</text>
  <text x="524" y="62" fill="#111111" font-size="14" opacity="0.75">#DD77BB</text>
  <rect x="0" y="88" width="170" height="88" fill="#BB5599"/>
  <text x="14" y="124" fill="#FFFFFF" font-size="17">plum</text>
  <text x="14" y="150" fill="#FFFFFF" font-size="14" opacity="0.75">#BB5599</text>
  <rect x="170" y="88" width="170" height="88" fill="#222222"/>
  <text x="184" y="124" fill="#FFFFFF" font-size="17">ink</text>
  <text x="184" y="150" fill="#FFFFFF" font-size="14" opacity="0.75">#222222</text>
  <rect x="340" y="88" width="170" height="88" fill="#DADADA"/>
  <text x="354" y="124" fill="#111111" font-size="17">ash</text>
  <text x="354" y="150" fill="#111111" font-size="14" opacity="0.75">#DADADA</text>
  <rect x="510" y="88" width="170" height="88" fill="#000000"/>
  <text x="524" y="124" fill="#FFFFFF" font-size="17">shadow</text>
  <text x="524" y="150" fill="#FFFFFF" font-size="14" opacity="0.75">#0000004D</text>
  <rect x="0" y="176" width="170" height="88" fill="#F1A796"/>
  <text x="14" y="212" fill="#111111" font-size="17">sayori</text>
  <text x="14" y="238" fill="#111111" font-size="14" opacity="0.75">#F1A796</text>
  <rect x="170" y="176" width="170" height="88" fill="#D1897E"/>
  <text x="184" y="212" fill="#111111" font-size="17">monika</text>
  <text x="184" y="238" fill="#111111" font-size="14" opacity="0.75">#D1897E</text>
  <rect x="340" y="176" width="170" height="88" fill="#FFBBC3"/>
  <text x="354" y="212" fill="#111111" font-size="17">natsuki</text>
  <text x="354" y="238" fill="#111111" font-size="14" opacity="0.75">#FFBBC3</text>
  <rect x="510" y="176" width="170" height="88" fill="#6C4681"/>
  <text x="524" y="212" fill="#FFFFFF" font-size="17">yuri</text>
  <text x="524" y="238" fill="#FFFFFF" font-size="14" opacity="0.75">#6C4681</text>
  <rect x="0" y="264" width="170" height="88" fill="#76C332"/>
  <text x="14" y="300" fill="#111111" font-size="17">monikaEye</text>
  <text x="14" y="326" fill="#111111" font-size="14" opacity="0.75">#76C332</text>
  <rect x="170" y="264" width="170" height="88" fill="#72D0FA"/>
  <text x="184" y="300" fill="#111111" font-size="17">sayoriEye</text>
  <text x="184" y="326" fill="#111111" font-size="14" opacity="0.75">#72D0FA</text>
  <rect x="340" y="264" width="170" height="88" fill="#361B39"/>
  <text x="354" y="300" fill="#FFFFFF" font-size="17">yuriShadow</text>
  <text x="354" y="326" fill="#FFFFFF" font-size="14" opacity="0.75">#361B39</text>
  <rect x="510" y="264" width="170" height="88" fill="#B59CA1"/>
  <text x="524" y="300" fill="#111111" font-size="17">jacket</text>
  <text x="524" y="326" fill="#111111" font-size="14" opacity="0.75">#B59CA1</text>
  <rect x="0" y="352" width="170" height="88" fill="#4B669E"/>
  <text x="14" y="388" fill="#FFFFFF" font-size="17">skirt</text>
  <text x="14" y="414" fill="#FFFFFF" font-size="14" opacity="0.75">#4B669E</text>
  <rect x="170" y="352" width="170" height="88" fill="#3F6B3F"/>
  <text x="184" y="388" fill="#FFFFFF" font-size="17">ribbon</text>
  <text x="184" y="414" fill="#FFFFFF" font-size="14" opacity="0.75">#3F6B3F</text>
  <rect x="340" y="352" width="170" height="88" fill="#6868B4"/>
  <text x="354" y="388" fill="#FFFFFF" font-size="17">rule</text>
  <text x="354" y="414" fill="#FFFFFF" font-size="14" opacity="0.75">#6868B4</text>
  <rect x="510" y="352" width="170" height="88" fill="#CC0C29"/>
  <text x="524" y="388" fill="#FFFFFF" font-size="17">bow</text>
  <text x="524" y="414" fill="#FFFFFF" font-size="14" opacity="0.75">#CC0C29</text>
  <rect x="0" y="440" width="170" height="88" fill="#8C1132"/>
  <text x="14" y="476" fill="#FFFFFF" font-size="17">bowShadow</text>
  <text x="14" y="502" fill="#FFFFFF" font-size="14" opacity="0.75">#8C1132</text>
</svg>
